<svg width="188" height="72" viewBox="0 0 188 72" fill="none" xmlns="http://www.w3.org/2000/svg">
<g id="Group">
<g id="Group_2">
<path id="Vector" d="M79.0087 39.3528L83.3346 36.2202C83.3346 36.2202 89.2515 34.9476 89.1521 26.9205C89.0029 18.3059 78.8596 20.7043 74.7824 22.5153C72.4951 23.5432 70.3571 25.1584 67.5726 26.382L45.2473 35.7308V53.6451L79.0087 39.3528Z" fill="url(#paint0_linear_1523_74)"/>
<path id="Vector_2" d="M83.7821 37.1013C83.7821 37.1013 90.4946 34.5071 90.4946 26.8715C90.4946 19.0401 82.1413 15.7607 82.1413 15.7607L71.2521 11.0129L45.2473 0V17.8654L78.2629 31.913C78.2629 31.913 81.0971 32.7451 81.1965 35.4861C81.1965 35.8776 81.3457 37.6886 78.7104 39.4507C79.6054 39.157 83.7821 37.1013 83.7821 37.1013Z" fill="url(#paint1_linear_1523_74)"/>
</g>
<path id="Vector_3" d="M11.4859 57.2671L7.16006 54.1346C7.16006 54.1346 1.2431 52.862 1.34255 44.8348C1.49172 36.2202 11.6351 38.6186 15.7123 40.4296C17.9995 41.4575 20.1376 43.0727 22.922 44.2964L45.2473 53.6451V71.5595L11.4859 57.2671Z" fill="url(#paint2_linear_1523_74)"/>
<path id="Vector_4" d="M6.71251 55.0156C6.71251 55.0156 0 52.4215 0 44.7859C0 36.9544 8.35334 33.675 8.35334 33.675L19.2425 28.9273L45.2473 17.9143V35.7797L12.2317 49.8273C12.2317 49.8273 9.39751 50.6594 9.29807 53.4004C9.29807 53.792 9.1489 55.603 11.7842 57.3651C10.8892 57.0714 6.71251 55.0156 6.71251 55.0156Z" fill="url(#paint3_linear_1523_74)"/>
<g id="Group_3">
<g id="Group_4">
<path id="Vector_5" d="M61.2081 72C55.8381 72 53.9984 69.4548 53.9984 65.4412V54.2325H57.7773V64.9028C57.7773 67.8885 58.5729 69.3569 61.2081 69.3569C63.6943 69.3569 64.5893 67.7417 64.5893 64.8538V54.2325H68.4179V65.3922C68.3682 69.5527 65.9815 72 61.2081 72Z" fill="#009FE2"/>
<path id="Vector_6" d="M79.0584 64.3154H75.6773V71.7063H71.8984V54.2814H78.8098C83.1357 54.2814 85.1246 55.8477 85.1246 59.225C85.1246 62.847 82.7876 64.3154 79.0584 64.3154ZM78.2629 56.7287H75.6773V61.8192H78.2132C80.2518 61.8192 81.2462 61.1829 81.2462 59.1271C81.2462 57.414 80.4009 56.7287 78.2629 56.7287Z" fill="#009FE2"/>
<path id="Vector_7" d="M93.6271 72C90.8427 72 88.0085 71.2658 87.4615 70.9721V68.2801C88.3068 68.7695 90.8427 69.5037 92.8316 69.5037C95.3177 69.5037 96.5607 68.7206 96.5607 67.1543C96.5607 66.0285 95.5166 65.3433 94.2238 64.7559C91.2902 63.4344 87.5113 62.4065 87.5113 58.5398C87.5113 55.4561 90.3952 53.9388 93.7266 53.9388C96.6602 53.9388 99.2955 54.7709 99.743 54.9177V57.5608C99.0468 57.2182 96.7596 56.4351 94.6216 56.4351C92.8316 56.4351 91.4891 56.9735 91.4891 58.3929C91.4891 58.9313 91.6879 59.3719 92.1354 59.7145C94.5221 61.6234 100.539 62.3576 100.539 66.7138C100.489 70.6295 97.406 72 93.6271 72Z" fill="#6CB52D"/>
<path id="Vector_8" d="M110.781 56.9245V71.7063H106.953V56.9245H101.931V54.2814H115.853V56.9245H110.781Z" fill="#6CB52D"/>
<path id="Vector_9" d="M127.786 71.7063L122.168 64.0217V71.7063H118.389V54.2814H125.151C129.725 54.2814 131.714 56.0924 131.714 58.9313C131.714 62.1128 129.179 63.3854 127.438 63.4344L125.897 63.4833L132.212 71.7063H127.786ZM124.902 56.6309H122.168V61.7702H124.952C127.04 61.7702 127.836 60.5955 127.836 59.0292C127.836 57.5119 126.891 56.6309 124.902 56.6309Z" fill="#6CB52D"/>
<path id="Vector_10" d="M134.847 71.7063V54.2814H146.333V56.7287H138.626V61.3786H146.084V63.777H138.626V69.259H146.532V71.7063H134.847Z" fill="#6CB52D"/>
<path id="Vector_11" d="M160.901 71.7063L156.625 57.9524L152.299 71.7063H148.421L154.288 54.2814H159.111L164.929 71.7063H160.901Z" fill="#6CB52D"/>
<path id="Vector_12" d="M184.669 71.7063V56.6798L179.696 71.7063H175.619L170.647 56.6798V71.7063H167.514V54.2814H173.083L177.807 68.8185L182.431 54.2814H188V71.7063H184.669Z" fill="#6CB52D"/>
<path id="Vector_13" d="M161.747 64.6581H151.504V67.5459H161.747V64.6581Z" fill="#6CB52D"/>
</g>
</g>
</g>
<defs>
<linearGradient id="paint0_linear_1523_74" x1="45.2152" y1="45.7057" x2="77.1464" y2="29.8226" gradientUnits="userSpaceOnUse">
<stop stop-color="#3AAA35"/>
<stop offset="1" stop-color="#003E15"/>
</linearGradient>
<linearGradient id="paint1_linear_1523_74" x1="47.286" y1="12.7458" x2="99.7852" y2="37.0927" gradientUnits="userSpaceOnUse">
<stop stop-color="#AFCA0B"/>
<stop offset="1" stop-color="#009640"/>
</linearGradient>
<linearGradient id="paint2_linear_1523_74" x1="2.12364" y1="42.6926" x2="39.1719" y2="61.278" gradientUnits="userSpaceOnUse">
<stop stop-color="#023C80"/>
<stop offset="1" stop-color="#0088CF"/>
</linearGradient>
<linearGradient id="paint3_linear_1523_74" x1="7.88292" y1="46.423" x2="48.3926" y2="28.5207" gradientUnits="userSpaceOnUse">
<stop stop-color="#0092D8"/>
<stop offset="1" stop-color="#83D0F5"/>
</linearGradient>
</defs>
</svg>
